<svg width="25" height="25" viewBox="0 0 25 25" fill="none" xmlns="http://www.w3.org/2000/svg">
<path 
fill-rule="evenodd" 
clip-rule="evenodd" 
d="M4.16659 2.0835H20.8333C21.9838 2.0835 22.9166 3.01624 22.9166 4.16683V20.8335C22.9166 
21.9841 21.9838 22.9168 20.8333 22.9168H4.16659C3.01599 22.9168 2.08325 21.9841 2.08325 
20.8335V4.16683C2.08325 3.01624 3.01599 2.0835 4.16659 2.0835ZM4.16659 
4.16683V20.8335H20.8333V4.16683H4.16659ZM11.5969 
12.5047H13.5416V18.7502H15.6249V12.5047H17.6899V10.4214H15.6249V9.37516C15.62498.79987 16.0913 8.3335 16.6666 
8.3335H17.7083V6.25016H16.6666C14.9407 6.25016 13.5416 7.64927 13.5416 9.37516V10.4214H11.5969V12.5047Z" 
fill="#B7B7B7"/>
</svg>
