<svg width="23" height="23" viewBox="0 0 23 23" fill="none" xmlns="http://www.w3.org/2000/svg">
<g clip-path="url(#clip0)">
<path d="M11.5009 22.9998C17.8521 22.9998 23.0008 17.8511 23.0008 11.4999C23.0008 5.14868 
17.8521 0 11.5009 0C5.14966 0 0.000976562 5.14868 0.000976562 11.4999C0.000976562 17.8511 
5.14966 22.9998 11.5009 22.9998Z" fill="#B7B7B7"/>
<path d="M18.5454 8.2646C18.0526 8.48313 17.5225 8.63093 16.9665 8.69694C17.5341 8.35685 
17.9698 7.81874 18.1754 7.17648C17.6442 7.49156 17.0557 7.72013 16.4298 7.84334C15.9284 
7.30932 15.214 6.97559 14.4229 6.97559C12.9051 6.97559 11.6741 8.20659 11.6741 9.72439C11.6741 
9.93984 11.6985 10.1495 11.7456 10.3509C9.46116 10.2363 7.43559 9.14199 6.07975 7.47844C5.84318 
7.88434 5.70747 8.35685 5.70747 8.86053C5.70747 9.81397 6.19311 10.6557 6.93028 11.1485C6.4799 
11.1344 6.05576 11.0107 5.68533 10.8043C5.68513 10.816 5.68513 10.8277 5.68513 10.8392C5.68513
 12.171 6.63303 13.2819 7.89028 13.5342C7.65986 13.5974 7.41653 13.6308 7.16623 13.6308C6.9887 
 13.6308 6.81671 13.6138 6.64902 13.5818C6.99875 14.6736 8.01368 15.4684 9.21681 15.4907C8.27587
  16.2281 7.09079 16.6674 5.80259 16.6674C5.58119 16.6674 5.36185 16.6545 5.14722 16.6289C6.36305 
  17.4091 7.80828 17.864 9.36051 17.864C14.4165 17.864 17.1815 13.6755 17.1815 10.0427C17.1815 9.92364 
  17.1789 9.80495 17.1735 9.68728C17.711 9.29984 18.177 8.81584 18.5454 8.2646Z" 
  fill="#F1F2F2"/>
</g>
<defs>
<clipPath id="clip0">
<rect width="23" height="23" fill="white"/>
</clipPath>
</defs>
</svg>
