<svg width="189" height="38" viewBox="0 0 189 38" fill="none" xmlns="http://www.w3.org/2000/svg">
<path d="M24.84 27.52C24.28 27.9733 23.4667 28.4133 22.4 28.84C21.3333 29.2667 20.1867 29.6267 18.96 29.92C17.7333 30.1867 16.5733 30.32 15.48 30.32C12.4133 30.32 9.74667 29.7067 7.48 28.48C5.21333 27.2267 3.45333 25.5333 2.2 23.4C0.973333 21.24 0.36 18.8 0.36 16.08C0.36 13.6533 0.746667 11.4933 1.52 9.6C2.32 7.70667 3.4 6.10667 4.76 4.8C6.14667 3.46667 7.73333 2.46667 9.52 1.8C11.3067 1.10667 13.2 0.76 15.2 0.76C16.88 0.76 18.44 0.96 19.88 1.36C21.32 1.76 22.5867 2.26667 23.68 2.88L22.4 6.44C21.84 6.12 21.16 5.82667 20.36 5.56C19.5867 5.29333 18.7867 5.08 17.96 4.92C17.1333 4.76 16.3733 4.68 15.68 4.68C13.4133 4.68 11.4267 5.13333 9.72 6.04C8.01333 6.94667 6.69333 8.22667 5.76 9.88C4.82667 11.5333 4.36 13.4933 4.36 15.76C4.36 17.8667 4.82667 19.7333 5.76 21.36C6.69333 22.96 8 24.2133 9.68 25.12C11.36 26 13.32 26.44 15.56 26.44C16.52 26.44 17.48 26.3467 18.44 26.16C19.4 25.9733 20.2133 25.68 20.88 25.28V19.6H15.16V15.84H24.84V27.52ZM34.6381 13.44L34.9181 17.32C35.3715 16.3867 35.9981 15.5867 36.7981 14.92C37.5981 14.2267 38.4248 13.7067 39.2781 13.36C40.1581 12.9867 40.9181 12.7867 41.5581 12.76L41.3981 16.48C40.1448 16.4267 39.0381 16.68 38.0781 17.24C37.1181 17.7733 36.3715 18.5067 35.8381 19.44C35.3048 20.3733 35.0381 21.3733 35.0381 22.44V30H31.3181V13.44H34.6381ZM53.3341 30.4C51.4674 30.4 49.8407 30.0267 48.4541 29.28C47.0941 28.5067 46.0407 27.4533 45.2941 26.12C44.5741 24.7867 44.2141 23.28 44.2141 21.6C44.2141 19.9733 44.6141 18.4933 45.4141 17.16C46.2407 15.8 47.3474 14.7333 48.7341 13.96C50.1474 13.16 51.7074 12.76 53.4141 12.76C55.6007 12.76 57.4141 13.4 58.8541 14.68C60.2941 15.96 61.2807 17.72 61.8141 19.96L48.6941 24.56C49.1474 25.3867 49.7874 26.04 50.6141 26.52C51.4407 26.9733 52.3741 27.2 53.4141 27.2C54.1607 27.2 54.8674 27.0667 55.5341 26.8C56.2007 26.5333 56.8407 26.1867 57.4541 25.76L59.1741 28.52C58.3207 29.08 57.3741 29.5333 56.3341 29.88C55.3207 30.2267 54.3207 30.4 53.3341 30.4ZM47.8941 21.4C47.8674 21.72 47.8807 22.0267 47.9341 22.32L57.5741 18.76C57.2007 17.96 56.6541 17.2533 55.9341 16.64C55.2407 16.0267 54.3074 15.72 53.1341 15.72C51.6141 15.72 50.3607 16.2533 49.3741 17.32C48.3874 18.3867 47.8941 19.7467 47.8941 21.4ZM67.8353 37.96L71.6353 29.48L63.9553 13.44H68.1553L73.4753 25.24L78.7553 13.44H82.1953L71.5153 37.96H67.8353Z" fill="#645858"/>
<path d="M94.8809 1.08C98.0009 1.08 100.454 1.86666 102.241 3.44C104.028 5.01333 104.921 7.21333 104.921 10.04C104.921 11.1867 104.748 12.32 104.401 13.44C104.054 14.5333 103.494 15.5333 102.721 16.44C101.974 17.32 100.988 18.04 99.7609 18.6C98.5343 19.1333 97.0409 19.4 95.2809 19.4H91.0009V30H87.1209V1.08H94.8809ZM95.2809 15.6C96.4009 15.6 97.3343 15.4267 98.0809 15.08C98.8276 14.7067 99.4143 14.2267 99.8409 13.64C100.294 13.0533 100.614 12.4533 100.801 11.84C100.988 11.2 101.081 10.6267 101.081 10.12C101.081 9.34667 100.894 8.54667 100.521 7.72C100.174 6.89333 99.5876 6.2 98.7609 5.64C97.9609 5.08 96.8676 4.8 95.4809 4.8H91.0009V15.6H95.2809ZM116.91 30.4C115.337 30.4 113.91 30.0667 112.63 29.4C111.377 28.7333 110.377 27.76 109.63 26.48C108.91 25.1733 108.55 23.5867 108.55 21.72C108.55 19.8533 108.923 18.2533 109.67 16.92C110.443 15.5867 111.47 14.56 112.75 13.84C114.057 13.12 115.483 12.76 117.03 12.76C118.523 12.76 119.79 13.08 120.83 13.72C121.87 14.36 122.683 15.1333 123.27 16.04L123.55 13.44H126.99V30H123.27V27.28C122.95 27.7067 122.483 28.16 121.87 28.64C121.283 29.12 120.563 29.5333 119.71 29.88C118.883 30.2267 117.95 30.4 116.91 30.4ZM117.91 27.32C119.27 27.32 120.43 26.9467 121.39 26.2C122.35 25.4267 122.977 24.3867 123.27 23.08V19.8C122.95 18.6533 122.283 17.7067 121.27 16.96C120.257 16.2133 119.097 15.84 117.79 15.84C116.777 15.84 115.857 16.08 115.03 16.56C114.203 17.04 113.537 17.7067 113.03 18.56C112.55 19.4133 112.31 20.4 112.31 21.52C112.31 22.6133 112.563 23.6 113.07 24.48C113.577 25.3333 114.257 26.0267 115.11 26.56C115.963 27.0667 116.897 27.32 117.91 27.32ZM143.267 30.4C142.067 30.4 140.907 30.1467 139.787 29.64C138.693 29.1067 137.827 28.4 137.187 27.52V37.96H133.467V13.16H136.707L137.027 15.96C137.827 15.0267 138.813 14.2667 139.987 13.68C141.187 13.0667 142.507 12.76 143.947 12.76C145.52 12.76 146.92 13.1333 148.147 13.88C149.4 14.6267 150.387 15.6667 151.107 17C151.827 18.3333 152.187 19.8933 152.187 21.68C152.187 23.4667 151.787 25.0133 150.987 26.32C150.213 27.6267 149.147 28.64 147.787 29.36C146.453 30.0533 144.947 30.4 143.267 30.4ZM142.547 27.4C143.587 27.4 144.547 27.16 145.427 26.68C146.333 26.1733 147.053 25.4933 147.587 24.64C148.12 23.7867 148.387 22.8133 148.387 21.72C148.387 20.6 148.133 19.6133 147.627 18.76C147.12 17.88 146.44 17.2 145.587 16.72C144.76 16.2133 143.827 15.96 142.787 15.96C141.347 15.96 140.133 16.36 139.147 17.16C138.16 17.96 137.507 19 137.187 20.28V23.08C137.4 24.3333 138 25.3733 138.987 26.2C140 27 141.187 27.4 142.547 27.4ZM164.858 30.4C162.991 30.4 161.364 30.0267 159.978 29.28C158.618 28.5067 157.564 27.4533 156.818 26.12C156.098 24.7867 155.738 23.28 155.738 21.6C155.738 19.9733 156.138 18.4933 156.938 17.16C157.764 15.8 158.871 14.7333 160.258 13.96C161.671 13.16 163.231 12.76 164.938 12.76C167.124 12.76 168.938 13.4 170.378 14.68C171.818 15.96 172.804 17.72 173.338 19.96L160.218 24.56C160.671 25.3867 161.311 26.04 162.138 26.52C162.964 26.9733 163.898 27.2 164.938 27.2C165.684 27.2 166.391 27.0667 167.058 26.8C167.724 26.5333 168.364 26.1867 168.978 25.76L170.698 28.52C169.844 29.08 168.898 29.5333 167.858 29.88C166.844 30.2267 165.844 30.4 164.858 30.4ZM159.418 21.4C159.391 21.72 159.404 22.0267 159.458 22.32L169.098 18.76C168.724 17.96 168.178 17.2533 167.458 16.64C166.764 16.0267 165.831 15.72 164.658 15.72C163.138 15.72 161.884 16.2533 160.898 17.32C159.911 18.3867 159.418 19.7467 159.418 21.4ZM181.279 13.44L181.559 17.32C182.012 16.3867 182.639 15.5867 183.439 14.92C184.239 14.2267 185.065 13.7067 185.919 13.36C186.799 12.9867 187.559 12.7867 188.199 12.76L188.039 16.48C186.785 16.4267 185.679 16.68 184.719 17.24C183.759 17.7733 183.012 18.5067 182.479 19.44C181.945 20.3733 181.679 21.3733 181.679 22.44V30H177.959V13.44H181.279Z" fill="#282828"/>
</svg>
