<svg width="26" height="26" viewBox="0 0 26 26" fill="none" xmlns="http://www.w3.org/2000/svg">
<path d="M25.9861 13.2432C25.9861 12.178 25.8977 11.4007 25.7062 10.5946H13.2588V15.4024H20.5652C20.4179 16.5972 19.6224 18.3966 17.8547 19.6057L17.83 19.7666L21.7656 22.746L22.0383 22.7726C24.5424 20.5126 25.9861 17.1874 25.9861 13.2432" fill="#4285F4"/>
<path d="M13.2586 25.9107C16.8381 25.9107 19.8431 24.7591 22.038 22.7726L17.8545 19.6057C16.735 20.3686 15.2324 20.9012 13.2586 20.9012C9.75267 20.9012 6.77709 18.6413 5.71638 15.5176L5.5609 15.5305L1.46856 18.6254L1.41504 18.7708C3.59516 23.0029 8.0733 25.9107 13.2586 25.9107Z" fill="#34A853"/>
<path d="M5.71643 15.5176C5.43655 14.7115 5.27457 13.8478 5.27457 12.9553C5.27457 12.0628 5.43655 11.1991 5.7017 10.393L5.69429 10.2214L1.55066 7.07675L1.41509 7.13977C0.516556 8.89596 0.000976562 10.8681 0.000976562 12.9553C0.000976562 15.0426 0.516556 17.0146 1.41509 18.7708L5.71643 15.5176" fill="#FBBC05"/>
<path d="M13.2585 5.0094C15.748 5.0094 17.4273 6.06021 18.3848 6.93836L22.1264 3.36842C19.8285 1.28118 16.838 3.05176e-05 13.2585 3.05176e-05C8.0733 3.05176e-05 3.59516 2.90776 1.41504 7.13981L5.70165 10.3931C6.77709 7.26941 9.75266 5.0094 13.2585 5.0094" fill="#EB4335"/>
</svg>
