<svg width="36" height="36" viewBox="0 0 36 36" fill="none" xmlns="http://www.w3.org/2000/svg">
<g clip-path="url(#clip0)">
<path d="M32.8929 30.3645L30.3174 26.0715C29.128 24.09 28.4994 21.8205 28.4994 19.5105V15.75C28.4994 11.0025 25.3314 6.98702 20.9994 5.6925V3.00002C20.9994 1.3455 19.6539 0 17.9994 0C16.3449 0 14.9994 1.3455 14.9994 3.00002V5.6925C10.6674 6.98702 7.49942 11.0025 7.49942 15.75V19.5105C7.49942 21.8205 6.8709 24.0885 5.6829 26.07L3.10742 30.363C2.96792 30.5956 2.9649 30.8836 3.09842 31.119C3.23195 31.3545 3.47945 31.5001 3.74945 31.5001H32.2494C32.5194 31.5001 32.7684 31.3546 32.9019 31.1206C33.0354 30.8865 33.0309 30.5955 32.8929 30.3645Z" fill="#676767"/>
<path d="M13.2759 33C14.1219 34.767 15.9129 36 17.9993 36C20.0858 36 21.8769 34.767 22.7229 33H13.2759Z" fill="#676767"/>
</g>
<defs>
<clipPath id="clip0">
<rect width="36" height="36" fill="white"/>
</clipPath>
</defs>
</svg>
