<svg width="22" height="22" viewBox="0 0 32 32" fill="none" xmlns="http://www.w3.org/2000/svg">
<path d="M31.1992 28.5621L23.5286 20.7999C25.5009 18.5188 26.5814 15.6487 26.5814 12.6607C26.5814
 5.67972 20.744 0 13.569 0C6.39412 0 0.556641 5.67972 0.556641 12.6607C0.556641 19.6418 
 6.39412 25.3215 13.569 25.3215C16.2626 25.3215 18.8294 24.531 21.024 23.0304L28.7528 
 30.8515C29.0759 31.1779 29.5104 31.3579 29.976 31.3579C30.4167 31.3579 30.8348 31.1944 
 31.1522 30.8972C31.8266 30.2658 31.8481 29.2188 31.1992 28.5621ZM13.569 3.3028C18.8724 
 3.3028 23.1869 7.50066 23.1869 12.6607C23.1869 17.8208 18.8724 22.0187 13.569 22.0187C8.26564 
 22.0187 3.95118 17.8208 3.95118 12.6607C3.95118 7.50066 8.26564 3.3028 13.569 3.3028Z" 
 fill="#656565"/>
</svg>
