<svg width="53" height="42" viewBox="0 0 53 42" fill="none" xmlns="http://www.w3.org/2000/svg">
<path d="M44.1586 13.7859C41.7091 4.02776 31.8129 -1.89703 22.0547 0.5525C14.4289 2.46681 8.89176 9.05766 8.32125 16.8993C2.90662 17.7922 -0.758984 22.9054 0.133948 28.32C0.927723 33.1337 5.09874 36.659 9.97732 36.6396H18.2577V33.3275H9.97732C6.31885 33.3275 3.35304 30.3617 3.35304 26.7032C3.35304 23.0447 6.31885 20.0789 9.97732 20.0789C10.892 20.0789 11.6334 19.3375 11.6334 18.4228C11.6251 10.1912 18.2915 3.51148 26.5231 3.50331C33.6488 3.49616 39.7827 8.53372 41.1611 15.5247C41.2972 16.2228 41.8637 16.756 42.5688 16.8496C47.0963 17.4943 50.2437 21.6872 49.5991 26.2145C49.0202 30.28 45.5491 33.307 41.4426 33.3275H34.8184V36.6396H41.4426C47.845 36.6203 53.0194 31.4144 52.9999 25.012C52.9838 19.6826 49.3359 15.0507 44.1586 13.7859Z" fill="#971692"/>
<path d="M25.3621 20.5594L18.7378 27.1836L21.0729 29.5187L24.8818 25.7263V41.608H28.194V25.7263L31.9864 29.5187L34.3214 27.1836L27.6971 20.5594C27.0512 19.9172 26.008 19.9172 25.3621 20.5594Z" fill="#971692"/>
</svg>
