 <svg id="design" viewBox="0 0 300 200">
    <path class="motion" d="
      M  0,  0
      C  0,  0  99,  1  99, 89
      L 99,111
      C 99,130  75,112  99,112
      C103,112 100,112 106,112
      C121,112 121, 89 105, 89
      C 88, 89 102, 89  99, 89
      C  0, 89  80,103 123,103
      C128,103 135,103 136,103
      C155,103 137,140 137,103
      C137, 92 123, 93 123,103
      C123,115 135,113 137,110
      C152, 86 103, 87 143,110
      C152,116 157,106 147,103
      C140,102 143, 93 152, 96
      C206,118 159.5,50 159,89
      L159,112
      C159,180 117, 93 168,118
      C176,122 180,116 180,115
      C183,107 169,101 168, 90
      C167, 77 180, 67 180, 95
      L180,103
      C180,115 166,115 166,103
      C166, 92 180, 94 180,102
      C180,180 188,125 188,112
      C188,110 188,100 188, 96
      C188, 91 189, 80 194, 91
      C200,101 186,134 188,106
      C189, 93 201, 93 201,100
      C201,105 201,105 201,112
      C201,130 220,160 300, 80
    "></path>
  </svg>